<svg
    xmlns="http://www.w3.org/2000/svg"
    viewBox="0 0 48 48"
    className="w-8 h-8"
>
    <path
    fill="#EA4335"
    d="M24 9.5c3.27 0 6.09 1.14 8.39 3.36l6.26-6.27C34.09 2.58 29.37 0 24 0 14.86 0 7.13 5.73 3.82 13.79l7.28 5.65C12.72 12.01 17.89 9.5 24 9.5z"
    />
    <path
    fill="#34A853"
    d="M24 48c6.35 0 11.67-2.06 15.56-5.62l-7.2-5.59c-2.25 1.51-5.12 2.37-8.36 2.37-6.1 0-11.27-4.51-12.89-10.72l-7.25 5.58C7.13 42.29 14.86 48 24 48z"
    />
    <path
    fill="#FBBC05"
    d="M43.46 20H24v8.91h11.05c-1.18 3.04-3.18 5.39-5.84 7.01l7.19 5.59c4.68-4.29 7.76-10.63 7.76-18.5 0-1.42-.15-2.81-.44-4.16z"
    />
    <path
    fill="#4285F4"
    d="M4.78 14.36C3.68 17.08 3 20.26 3 23.63c0 3.37.68 6.55 1.78 9.27l7.25-5.58c-.51-1.54-.8-3.2-.8-4.94s.29-3.39.8-4.94l-7.25-5.58z"
    />
</svg>